<svg xmlns="http://www.w3.org/2000/svg" viewBox="0 0 1000 1000">
  <rect width="1000" height="1000" fill="#1C1C1C"/>
  <rect x="75" y="75" width="850" height="850" fill="none" stroke="#EBEBE9" stroke-width="10"/>
  <g fill="#EBEBE9">
    <path transform="translate(130.2,647.0) scale(0.420000,-0.420000)" d="M126 715 707 95 716 -14 135 605ZM128 71V0H45V10Q45 10 54.0 10.0Q63 10 64 10Q89 10 107.0 28.0Q125 46 125 71ZM171 71Q171 46 189.0 28.0Q207 10 232 10Q233 10 242.0 10.0Q251 10 251 10V0H168V71ZM126 715 170 659 171 0H125V590Q125 641 120.5 678.0Q116 715 116 715ZM716 700V114Q716 82 718.0 52.5Q720 23 722.5 4.5Q725 -14 725 -14H716L671 39V700ZM796 700V690Q796 690 787.0 690.0Q778 690 778 690Q753 690 735.0 672.5Q717 655 716 629H713V700ZM590 700H673V629H671Q670 655 652.5 672.5Q635 690 609 690Q609 690 600.0 690.0Q591 690 590 690Z"/>
    <path transform="translate(528.4,647.0) scale(0.420000,-0.420000)" d="M676 700V0H611V700ZM202 700V0H137V700ZM620 361V331H192V361ZM140 73V0H60V10Q60 10 66.5 10.0Q73 10 73 10Q99 10 117.5 28.5Q136 47 137 73ZM140 627H137Q136 653 117.5 671.5Q99 690 73 690Q73 690 66.5 690.0Q60 690 60 690V700H140ZM199 73H202Q203 47 221.5 28.5Q240 10 266 10Q266 10 272.0 10.0Q278 10 279 10V0H199ZM199 627V700H279V690Q278 690 272.0 690.0Q266 690 266 690Q240 690 221.5 671.5Q203 653 202 627ZM614 73V0H534V10Q535 10 541.0 10.0Q547 10 547 10Q573 10 592.0 28.5Q611 47 611 73ZM614 627H611Q611 653 592.0 671.5Q573 690 547 690Q547 690 541.0 690.0Q535 690 534 690V700H614ZM673 73H676Q677 47 695.5 28.5Q714 10 740 10Q740 10 746.5 10.0Q753 10 753 10V0H673ZM673 627V700H753V690Q753 690 746.5 690.0Q740 690 740 690Q714 690 695.5 671.5Q677 653 676 627Z"/>
  </g>
</svg>